<?xml version="1.0" encoding="utf-8"?>
<!-- Generator: Adobe Illustrator 21.0.2, SVG Export Plug-In . SVG Version: 6.00 Build 0)  -->
<!DOCTYPE svg PUBLIC "-//W3C//DTD SVG 1.1//EN" "http://www.w3.org/Graphics/SVG/1.1/DTD/svg11.dtd">
<svg version="1.1" id="Layer_1" xmlns="http://www.w3.org/2000/svg" xmlns:xlink="http://www.w3.org/1999/xlink" x="0px" y="0px"
	 viewBox="0 0 108.6 101.6" style="enable-background:new 0 0 108.6 101.6;" xml:space="preserve">
<style type="text/css">
	.st0{fill:#EEEEEE;}
</style>
<title>Logo_Series_Tagline_Horizontal</title>
<g id="eagle">
	<g id="l-leg">
		<path class="st0" d="M31.4,80.8c0,0-7,10.2,0,11.7l-4.2,2.8c0,0-3-3.8-6.1-3.8c3.1-3.3,5.5-7,7.2-11.2L31.4,80.8L31.4,80.8z"/>
	</g>
	<g id="l-foot">
		<path class="st0" d="M23.1,101.6c0,0,4,0.6,4-4.2c0,0-2.8-2.1-3.2-1.9c0,0-10.6-8.3-14,1.1c0,0-0.8,4,2.5,4.5c0,0-2.5-5.5,3.2-4.5
			c0,0,2.3-4.5,6.6,0.6C22.2,97.2,27.9,99.9,23.1,101.6L23.1,101.6z"/>
	</g>
	<g id="r-leg">
		<path class="st0" d="M32.8,79.8c0,0,6.2-1.3,11.2,2.5c0,0-0.8-10-6.1-9.1C37.9,73.2,36.9,72.8,32.8,79.8z"/>
	</g>
	<g id="r-foot">
		<path class="st0" d="M33.3,81.3c0,0-1.7,1.3-1.5,3c0,0-5.3,4.5,1.7,7.4c0,0-3.2-5.5,1.3-6c0,0,5.5,1.3,5.5,4.2
			c-0.5,0.5-1.1,1-1.7,1.5c0,0,3.4,1.7,5.1-3.6c0,0-4.3-1.9-4-5.5C39.7,82.3,35.6,80.9,33.3,81.3L33.3,81.3z"/>
	</g>
	<g id="head">
		<path class="st0" d="M9.7,73c0,0-0.4,5.7,4.6,8.3L13.6,77c0,0,9.8-4.7,14.8,1.7l3.6,0.2c0,0,3.2-7.2,6.6-7.6c0,0,4.3-1,7,10.4
			c3.3,0.7,6.7,0.1,9.5-1.7C55.1,80,32.4,52.8,9.7,73L9.7,73z M16.7,71.7L13.2,73c0,0,1.1-4,6.1-3.8L16.7,71.7L16.7,71.7z"/>
	</g>
	<g id="l-wing">
		<path class="st0" d="M24.6,26.7l3.4,0.8c0,0-0.8-8.3,1.7-8.7C29.7,18.7,26.5,18.9,24.6,26.7L24.6,26.7z"/>
		<path class="st0" d="M20.2,26.1c-0.1-4.8,2.4-9.2,6.6-11.5c0,0-5.5,7.4-3,11.7L20.2,26.1z"/>
		<path class="st0" d="M14.6,25.5c0,0-2.3-13.6,7.9-17.8c0,0-4,5.9-3.2,8.1l1.3,0.6c0,0-2.8,6.8-2.1,9.3L14.6,25.5L14.6,25.5z"/>
		<path class="st0" d="M8.2,25c0,0-4.9-18.6,8.1-25c0,0-5.3,8.9-2.5,11.9c0,0-3.8,9.1-1.3,13.2L8.2,25z"/>
		<path class="st0" d="M2.7,23.8c0,0-9.1-13.6,6.2-21.4c0,0-2.1,4-3.6,4.5c0,0-2.5,13.4,1.1,17L2.7,23.8L2.7,23.8z"/>
	</g>
	<g id="r-wing">
		<path class="st0" d="M93.1,20.6c0,0,9.3-7.8,0-17.2c0,0,10.6-1.1,7.8,7c0,0,4.5,3.6-1.1,9.6c0,0-1.1,4.4-6.6,4.9L93.1,20.6
			L93.1,20.6z"/>
		<path class="st0" d="M92.5,28.2c0,0,13.4-6.1,14-19.1c0,0,3.8,2.5-0.8,7.8c0,0,4.4,6.2-0.8,10.2c-3,3.9-7.6,6.4-12.5,6.8
			L92.5,28.2L92.5,28.2z"/>
		<path class="st0" d="M91.8,35.8c0,0,13.1-1.7,16.8-9.8c0,0-3.2,6.6-2.1,7.9c0,0-1.1,4.9-14.8,5.7V35.8L91.8,35.8z"/>
		<path class="st0" d="M91.2,41c0,0,11.2,0.8,16.6-5.5c0,0,0.6,4.5-7.6,9.1c0,0-6.2,1.7-9.3-0.4L91.2,41z"/>
		<path class="st0" d="M90.4,45.8c0,0,4.2,2.8,12.5,1.5c0,0-6.4,4.5-5.1,5.1c0,0-7.6,0.2-7.6-2.3L90.4,45.8L90.4,45.8z"/>
		<path class="st0" d="M89.9,52.2c0,0,0.8,2.5,6.8,1.9c0,0,0,3.6-7,1.7L89.9,52.2L89.9,52.2z"/>
	</g>
	<g id="U-2">
		<path class="st0" d="M45.6,84.2c0,0,9.5-1.1,9.8-2.3c0,0,7.8,11.4,11.9,8.3c0,0,2.5-0.2-7.6-10c0,0,4.5-1.3,6.2-3.6
			c0,0,3.6,3.8,21.8,8.1c-9.2,6.8-19.5,12-30.5,15.1C57.3,99.9,53.9,89.1,45.6,84.2L45.6,84.2z"/>
	</g>
	<g id="W-2">
		<path class="st0" d="M40.9,66.8l11-10.2c0,0,3.8,12.1,7.9,11.2c0,0-0.2-6.6-4.7-14.9c0,0,6.8-12.3,16.3-17.8
			c0,0,0.6,19.7,3.2,16.3c1.4-5.6,1.7-11.5,0.8-17.2c0,0,1.9,2.5,15.1-10c0,0-4.5,31.8-3.2,35.6c-2.2,1.4-4,3.2-5.5,5.3
			c0,0-2.8,3.4-5.1,4c0,0-1.7-5.1-9.1-10.4c0,0,1.3,11.7,2.8,13.4c0,0-8.5,6.4-12.5,7C57.9,78.9,49,68.7,40.9,66.8L40.9,66.8z"/>
	</g>
	<g id="E-4">
		<path class="st0" d="M25.2,63c0,0-7.8-22.9-23.8-37.3l25.9,3l8.3,10.6c0,0-11.2-4.5-11.9-0.4s12.9,3,12.9,3l4.5,9.5
			c0,0-11.7-2.1-10.4,1.5C32,56.5,42,55.4,42,55.4s1.9,6.6,1.5,7.8L25.2,63z"/>
	</g>
</g>
</svg>
